<svg width="27" height="24" viewBox="0 0 27 24" fill="none" xmlns="http://www.w3.org/2000/svg">
<path d="M6.88589 1.1598C9.69627 0.457033 11.5415 1.33633 12.6651 2.45988C12.7875 2.58226 12.9006 2.7068 13.0051 2.83153C13.1278 2.97802 13.3091 3.06265 13.5002 3.06265C13.6913 3.06265 13.8726 2.97802 13.9953 2.83153C14.0998 2.70679 14.2129 2.58225 14.3353 2.45988C15.4589 1.33629 17.3043 0.457053 20.1153 1.1598C22.9229 1.86173 25.0419 3.97284 25.7491 6.62517C26.461 9.29528 25.7249 12.433 22.9982 15.1597C19.9813 18.1766 17.4061 20.7531 15.7854 22.3748C14.5244 23.6366 12.4827 23.6372 11.2211 22.3759L4.00388 15.1597C1.27608 12.4324 0.539973 9.29459 1.25217 6.62457C1.9596 3.9724 4.07894 1.86172 6.88589 1.1598Z" fill="#F2F2F2"/>
</svg>
