<svg width="27" height="26" viewBox="0 0 27 26" fill="none" xmlns="http://www.w3.org/2000/svg">
<path d="M15.0159 1.03837C14.7669 0.754514 14.4034 0.588657 14.0189 0.583382C13.6344 0.578106 13.2662 0.733927 13.009 1.01084L1.00896 13.9275C0.656721 14.3067 0.567802 14.8511 0.782022 15.3171C0.996242 15.7831 1.47347 16.0833 2.00002 16.0833H4.66669V23.8333C4.66669 24.5466 5.26364 25.1249 6.00002 25.1249H11.3334V18.6666H16.6667V25.1249H22C22.7364 25.1249 23.3334 24.5466 23.3334 23.8333V16.0833H25.3334C25.8531 16.0833 26.3254 15.7907 26.5436 15.3337C26.7617 14.8768 26.6859 14.3387 26.3493 13.955L15.0159 1.03837Z" fill="#F2F2F2"/>
</svg>
