<svg width="24" height="23" viewBox="0 0 17 17" fill="none" xmlns="http://www.w3.org/2000/svg">
	<path fill-rule="evenodd" clip-rule="evenodd" d="M7.16667 0.75C3.62284 0.75 0.75 3.62284 0.75 7.16667C0.75 10.7105 3.62284 13.5833 7.16667 13.5833C8.60797 13.5833 9.93829 13.1081 11.0095 12.3059L14.7686 16.0649C15.1265 16.4229 15.7069 16.4229 16.0649 16.0649C16.4229 15.7069 16.4229 15.1265 16.0649 14.7686L12.3059 11.0095C13.1081 9.93829 13.5833 8.60797 13.5833 7.16667C13.5833 3.62284 10.7105 0.75 7.16667 0.75ZM2.58333 7.16667C2.58333 4.63536 4.63536 2.58333 7.16667 2.58333C9.69797 2.58333 11.75 4.63536 11.75 7.16667C11.75 9.69797 9.69797 11.75 7.16667 11.75C4.63536 11.75 2.58333 9.69797 2.58333 7.16667Z" fill="#CC2D4A"/>
</svg>
