<svg width="25" height="27" viewBox="0 0 25 27" fill="none" xmlns="http://www.w3.org/2000/svg">
<path fill-rule="evenodd" clip-rule="evenodd" d="M2.78225 17.6464C4.4799 15.2799 7.48651 13.4999 12.4999 13.4999C17.5132 13.4999 20.5199 15.2799 22.2175 17.6464C23.8582 19.9336 24.1196 22.5552 24.1248 24.0058C24.13 25.4645 22.9071 26.4166 21.6533 26.4166H3.34642C2.09262 26.4166 0.869709 25.4645 0.874956 24.0058C0.880174 22.5552 1.1415 19.9336 2.78225 17.6464Z" fill="#F2F2F2"/>
<path fill-rule="evenodd" clip-rule="evenodd" d="M12.5 10.9166C15.3535 10.9166 17.6667 8.60339 17.6667 5.74992C17.6667 2.89645 15.3535 0.583252 12.5 0.583252C9.64653 0.583252 7.33334 2.89645 7.33334 5.74992C7.33334 8.60339 9.64653 10.9166 12.5 10.9166Z" fill="#F2F2F2"/>
</svg>
