<svg width="16" height="16" viewBox="0 0 16 16" fill="none" xmlns="http://www.w3.org/2000/svg">
<path d="M15.293 11.293C13.8115 11.9631 12.161 12.1659 10.5614 11.8743C8.96173 11.5827 7.48893 10.8106 6.33918 9.66082C5.18943 8.51107 4.41732 7.03827 4.12573 5.43863C3.83413 3.839 4.03689 2.18849 4.707 0.707001C3.52756 1.24001 2.49503 2.0512 1.698 3.07096C0.900971 4.09072 0.363229 5.28862 0.130909 6.56189C-0.101411 7.83515 -0.0213717 9.14577 0.364159 10.3813C0.749689 11.6168 1.4292 12.7404 2.3444 13.6556C3.2596 14.5708 4.38316 15.2503 5.61869 15.6358C6.85423 16.0214 8.16485 16.1014 9.43811 15.8691C10.7114 15.6368 11.9093 15.099 12.929 14.302C13.9488 13.505 14.76 12.4724 15.293 11.293Z" fill="#CC2D4A"/>
</svg>
